# xmcd
#
# Track frame offsets: 
#        150
#        32890
#        45780
#        87600
#        104518
#        134495
#        172933
#
# Disc length: 2720 seconds
#
# Revision: 6
# Processed by: cddbd v1.5.2PL0 Copyright (c) Steve Scherf et al.
# Submitted via: ExactAudioCopy v1.3
#
DISCID=560a9e07
DTITLE=John Mayall - Jazz Blues Fusion
DYEAR=1972
DGENRE=Blues
TTITLE0=Country Road (Live)
TTITLE1=Mess Around (Live)
TTITLE2=Good Times Boogie (Live)
TTITLE3=Change Your Ways (Live)
TTITLE4=Dry Throat (Live)
TTITLE5=Exercise In C Major For Harmonica (Live)
TTITLE6=Got To Be This Way (Live)
EXTD=YEAR: 1972
EXTT0=
EXTT1=
EXTT2=
EXTT3=
EXTT4=
EXTT5=
EXTT6=
PLAYORDER=
